<?xml version="1.0" standalone="no"?>
<!DOCTYPE svg PUBLIC "-//W3C//DTD SVG 20010904//EN"
 "http://www.w3.org/TR/2001/REC-SVG-20010904/DTD/svg10.dtd">
<svg version="1.0" xmlns="http://www.w3.org/2000/svg"
 width="1014.000000pt" height="1014.000000pt" viewBox="0 0 1014.000000 1014.000000"
 preserveAspectRatio="xMidYMid meet">

<g transform="translate(0.000000,1014.000000) scale(0.100000,-0.100000)"
fill="#000000" stroke="none">
<path d="M2660 5993 l0 -2165 27 5 c15 3 553 121 1196 264 l1169 258 711 833
c391 458 714 831 718 830 4 -2 202 -259 440 -573 237 -313 434 -572 436 -574
4 -5 661 137 675 145 11 7 10 114 -2 114 -10 0 -603 -128 -632 -136 -12 -3
-128 142 -454 568 -240 315 -447 585 -459 600 l-23 27 -723 -860 c-398 -472
-731 -861 -739 -864 -8 -2 -494 -111 -1080 -240 -586 -130 -1073 -238 -1082
-241 -17 -5 -18 98 -18 2076 0 1656 -3 2081 -12 2085 -7 2 -43 6 -80 8 l-68 5
0 -2165z"/>
<path d="M1970 7812 c0 -2 125 -242 278 -532 l277 -528 3 495 c1 273 1 497 0
499 -5 4 -558 70 -558 66z"/>
<path d="M2950 6821 l0 -880 306 -583 c168 -321 362 -691 432 -823 69 -132
126 -241 127 -242 3 -5 830 188 837 195 8 8 1088 2817 1095 2848 5 20 -6 22
-303 58 -169 20 -310 34 -314 29 -4 -4 -202 -475 -440 -1045 -239 -571 -436
-1038 -439 -1038 -3 0 -253 523 -555 1163 -302 639 -554 1165 -559 1168 -5 4
-41 10 -81 13 -39 4 -79 9 -88 12 -17 5 -18 -41 -18 -875z"/>
<path d="M6497 6959 c-4 -183 -7 -400 -7 -483 l0 -150 208 -274 207 -275 6
199 c4 110 7 440 8 734 l2 535 -145 16 c-79 9 -173 20 -209 23 l-64 7 -6 -332z"/>
<path d="M6477 5373 c-3 -263 -4 -480 -1 -482 2 -2 147 26 321 62 175 37 322
67 327 67 4 0 6 7 3 15 -6 14 -592 762 -627 798 -16 17 -17 -9 -23 -460z"/>
<path d="M7511 5450 c-167 -27 -305 -51 -308 -54 -6 -5 214 -300 228 -304 8
-3 373 70 422 84 15 5 17 22 17 165 l0 159 -27 -1 c-16 0 -165 -23 -332 -49z"/>
</g>
</svg>
